<svg xmlns="http://www.w3.org/2000/svg" version="1.1" xmlns:xlink="http://www.w3.org/1999/xlink" xmlns:svgjs="http://svgjs.dev/svgjs" width="1500" height="1500" viewBox="0 0 1500 1500"><g transform="matrix(1,0,0,1,-0.7499999999998863,-0.7499999999998863)"><svg viewBox="0 0 280 280" data-background-color="#ffffff" preserveAspectRatio="xMidYMid meet" height="1500" width="1500" xmlns="http://www.w3.org/2000/svg" xmlns:xlink="http://www.w3.org/1999/xlink"><g id="tight-bounds" transform="matrix(1,0,0,1,0.13999999999998636,0.13999999999998636)"><svg viewBox="0 0 279.72 279.72" height="279.72" width="279.72"><g><svg viewBox="0 0 279.72 279.72" height="279.72" width="279.72"><g><svg viewBox="0 0 279.72 279.72" height="279.72" width="279.72"><g id="textblocktransform"><svg viewBox="0 0 279.72 279.72" height="279.72" width="279.72" id="textblock"><g><svg viewBox="0 0 279.72 279.72" height="279.72" width="279.72"><g transform="matrix(1,0,0,1,57.446704652707865,57.446704652707865)"><svg viewBox="0 0 164.8265906945843 164.8265906945843" height="164.8265906945843" width="164.8265906945843"><g id="icon-0"><circle r="82" cx="82.41329534729215" cy="82.41329534729215" fill="#010c80" data-fill-palette-color="accent"></circle><svg xmlns="http://www.w3.org/2000/svg" xmlns:xlink="http://www.w3.org/1999/xlink" version="1.1" x="24.72398860418764" y="24.723988604187646" viewBox="19.90000000000001 46.691800467110966 99.89999999999999 46.308199532889034" style="enable-background:new 0 0 141.7 141.7;" xml:space="preserve" height="115.378613486209" width="115.378613486209" class="icon-xg-0" data-fill-palette-color="quaternary" id="xg-0"><path d="M118 76.9c-3.2 0-4.8 1.7-6.1 3-1.2 1.3-2 2-3.5 2s-2.3-0.7-3.5-2c-1.3-1.4-2.9-3-6.1-3-1.4 0-2.4 0.3-3.3 0.8-3-9-11.4-30.6-24.2-31-13.7-0.5-23.5 22-26.9 31.1-0.9-0.5-2-0.9-3.5-0.9-3.2 0-4.8 1.7-6.1 3-1.2 1.3-2 2-3.5 2-1.6 0-2.3-0.7-3.5-2-1.3-1.4-2.9-3-6.1-3-1 0-1.8 0.8-1.8 1.8 0 1 0.8 1.8 1.8 1.8 1.6 0 2.3 0.7 3.5 2 1.3 1.4 2.9 3 6.1 3 3.2 0 4.8-1.7 6.1-3 1.2-1.3 2-2 3.5-2 1 0 1.6 0.3 2.3 0.7l0.4 0.3c0.3 0.3 0.6 0.5 0.9 0.9 1.3 1.4 2.9 3 6.1 3 3.2 0 4.8-1.7 6.1-3 0.3-0.3 0.6-0.6 0.9-0.9h5.3c0.3 0.3 0.6 0.5 0.9 0.9 1.3 1.4 2.9 3 6.1 3s4.8-1.7 6.1-3c0.3-0.3 0.6-0.6 0.9-0.9h5.3c0.3 0.3 0.6 0.5 0.9 0.9 1.3 1.4 2.9 3 6.1 3 3.2 0 4.8-1.7 6.1-3 0.3-0.3 0.6-0.6 0.9-0.9l0.4-0.3c0.6-0.5 1.3-0.7 2.2-0.7 1.6 0 2.3 0.7 3.5 2 1.3 1.4 2.9 3 6.1 3 3.2 0 4.8-1.7 6.1-3 1.2-1.3 2-2 3.5-2 1 0 1.8-0.8 1.8-1.8C119.8 77.7 119 76.9 118 76.9z" fill="#ffffff" data-fill-palette-color="quaternary"></path><path d="M118 84.4c-3.2 0-4.8 1.7-6.1 3-1.2 1.3-2 2-3.5 2s-2.3-0.7-3.5-2c-1.3-1.4-2.9-3-6.1-3-3.2 0-4.8 1.7-6.1 3-1.2 1.3-2 2-3.5 2-1.6 0-2.3-0.7-3.5-2-1.3-1.4-2.9-3-6.1-3-3.2 0-4.8 1.7-6.1 3-1.2 1.3-2 2-3.5 2-1.6 0-2.3-0.7-3.5-2-1.3-1.4-2.9-3-6.1-3-3.2 0-4.8 1.7-6.1 3-1.2 1.3-2 2-3.5 2-1.6 0-2.3-0.7-3.5-2-1.3-1.4-2.9-3-6.1-3-3.2 0-4.8 1.7-6.1 3-1.2 1.3-2 2-3.5 2-1.6 0-2.3-0.7-3.5-2-1.3-1.4-2.9-3-6.1-3-1 0-1.8 0.8-1.8 1.8 0 1 0.8 1.8 1.8 1.8 1.6 0 2.3 0.7 3.5 2 1.3 1.4 2.9 3 6.1 3 3.2 0 4.8-1.7 6.1-3 1.2-1.3 2-2 3.5-2 1.6 0 2.3 0.7 3.5 2 1.3 1.4 2.9 3 6.1 3 3.2 0 4.8-1.7 6.1-3 1.2-1.3 2-2 3.5-2 1.6 0 2.3 0.7 3.5 2 1.3 1.4 2.9 3 6.1 3s4.8-1.7 6.1-3c1.2-1.3 2-2 3.5-2 1.6 0 2.3 0.7 3.5 2 1.3 1.4 2.9 3 6.1 3 3.2 0 4.8-1.7 6.1-3 1.2-1.3 2-2 3.5-2 1.6 0 2.3 0.7 3.5 2 1.3 1.4 2.9 3 6.1 3 3.2 0 4.8-1.7 6.1-3 1.2-1.3 2-2 3.5-2 1 0 1.8-0.8 1.8-1.8C119.8 85.2 119 84.4 118 84.4z" fill="#ffffff" data-fill-palette-color="quaternary"></path></svg></g></svg></g><g id="text-0"><path d="M28.233 102.812l-0.917 3.311-27.316-7.566 0.917-3.311z" fill="#010c80" data-fill-palette-color="primary"></path><path d="M57.111 57.181v0c-1.028 1.073-2.086 1.856-3.175 2.347-1.084 0.487-2.146 0.746-3.187 0.778-1.041 0.032-1.986-0.134-2.835-0.498v0l1.121-2.855c0.972 0.304 1.98 0.321 3.026 0.05 1.045-0.271 1.951-0.806 2.718-1.607v0c0.879-0.917 1.436-1.861 1.673-2.831 0.237-0.97 0.026-1.771-0.632-2.402v0c-0.605-0.58-1.313-0.818-2.122-0.714-0.81 0.103-1.762 0.492-2.857 1.165v0l-1.726 1.04c-1.622 0.991-3.143 1.513-4.561 1.568-1.423 0.059-2.583-0.341-3.48-1.201v0c-1.381-1.323-2.022-2.807-1.924-4.453 0.094-1.641 1-3.359 2.72-5.154v0c0.823-0.859 1.697-1.518 2.624-1.978 0.927-0.46 1.86-0.721 2.8-0.784 0.945-0.068 1.841 0.08 2.69 0.444v0l-1.048 2.911c-0.907-0.382-1.787-0.42-2.64-0.115-0.854 0.305-1.682 0.877-2.486 1.716v0c-0.86 0.898-1.343 1.783-1.448 2.655-0.105 0.872 0.181 1.633 0.859 2.282v0c0.39 0.374 0.957 0.515 1.7 0.422 0.743-0.092 1.615-0.446 2.615-1.06v0l1.783-1.099c1.15-0.732 2.263-1.2 3.338-1.405 1.071-0.2 2.058-0.185 2.961 0.044 0.903 0.229 1.687 0.661 2.351 1.297v0c0.873 0.837 1.408 1.797 1.603 2.883 0.195 1.085 0.083 2.189-0.338 3.311-0.425 1.127-1.133 2.208-2.123 3.243z" fill="#010c80" data-fill-palette-color="primary"></path><path d="M104.112 27.514l-3.04 1.102-9.661-26.647 3.039-1.102z" fill="#010c80" data-fill-palette-color="primary"></path><path d="M165.554 24.666l-2.972-0.402 0.295-3.314 0.989-7.301c0.214-1.58 0.217-2.909 0.008-3.987-0.209-1.071-0.653-1.926-1.33-2.563-0.677-0.637-1.619-1.037-2.824-1.201v0c-1.098-0.149-2.072-0.056-2.922 0.28-0.85 0.335-1.594 0.947-2.232 1.835v0l-2.731-1.505c0.636-0.868 1.361-1.595 2.176-2.18 0.809-0.586 1.72-0.994 2.733-1.226 1.013-0.231 2.135-0.263 3.368-0.096v0c1.875 0.254 3.371 0.831 4.49 1.733 1.112 0.901 1.879 2.109 2.301 3.625 0.423 1.509 0.478 3.32 0.164 5.432v0zM156.501 23.931v0c-2.357-0.319-4.121-1.11-5.293-2.373-1.179-1.264-1.638-2.857-1.378-4.778v0c0.276-2.035 1.163-3.504 2.662-4.405 1.493-0.902 3.457-1.189 5.895-0.859v0l5.734 0.777-0.365 2.691-5.011-0.679c-1.875-0.254-3.249-0.126-4.122 0.383-0.867 0.51-1.378 1.341-1.534 2.492v0c-0.141 1.038 0.133 1.91 0.822 2.617 0.695 0.708 1.739 1.156 3.131 1.344v0c1.152 0.156 2.189 0.044 3.114-0.335 0.924-0.379 1.682-0.996 2.275-1.85 0.594-0.86 0.976-1.92 1.146-3.178v0l1.356 0.183c-0.369 2.725-1.276 4.814-2.72 6.269-1.451 1.453-3.355 2.021-5.712 1.701z" fill="#010c80" data-fill-palette-color="primary"></path><path d="M209.625 45.236l-2.555-1.981 12.404-16.003 2.395 1.856-2.124 3.072zM220.863 53.946l-2.563-1.987 6.351-8.194 2.563 1.987zM227.214 45.752l-2.563-1.987c1.225-1.581 1.979-2.928 2.261-4.042 0.278-1.109 0.22-2.065-0.175-2.867-0.401-0.806-1.007-1.524-1.819-2.154v0c-1.41-1.093-2.889-1.444-4.439-1.055-1.545 0.384-3.022 1.483-4.428 3.299v0l-1.242-0.963c1.308-1.687 2.675-2.949 4.1-3.784 1.435-0.837 2.871-1.211 4.307-1.124 1.436 0.088 2.817 0.645 4.141 1.672v0c1.26 0.977 2.158 2.074 2.693 3.292 0.54 1.222 0.65 2.581 0.328 4.075-0.317 1.49-1.173 3.113-2.568 4.869v0z" fill="#010c80" data-fill-palette-color="primary"></path><path d="M253.267 107.93l-1.107-2.875 3.46-1.505 22.935-8.828 1.165 3.027zM249.191 98.695v0c-0.65-1.69-0.807-3.338-0.47-4.945 0.34-1.6 1.121-3.049 2.346-4.345 1.218-1.294 2.797-2.315 4.739-3.062v0c1.967-0.757 3.83-1.062 5.588-0.913 1.765 0.146 3.309 0.699 4.635 1.659 1.327 0.966 2.316 2.294 2.966 3.983v0c0.612 1.589 0.731 3.139 0.357 4.652-0.371 1.518-1.175 2.892-2.41 4.12-1.229 1.226-2.828 2.218-4.795 2.975v0c-1.942 0.747-3.786 1.081-5.533 1-1.753-0.078-3.276-0.556-4.569-1.434-1.291-0.871-2.242-2.101-2.854-3.69zM252.215 98.313v0c0.427 1.11 1.108 1.977 2.043 2.601 0.933 0.618 2.033 0.966 3.301 1.043 1.274 0.074 2.604-0.155 3.991-0.69v0c1.387-0.534 2.528-1.255 3.424-2.164 0.889-0.907 1.472-1.902 1.75-2.987 0.275-1.09 0.194-2.203-0.243-3.338v0c-0.456-1.185-1.164-2.122-2.124-2.809-0.96-0.688-2.08-1.089-3.362-1.203-1.286-0.106-2.622 0.108-4.01 0.642v0c-1.387 0.534-2.522 1.271-3.405 2.212-0.874 0.945-1.435 2-1.68 3.166-0.246 1.166-0.141 2.342 0.315 3.527z" fill="#010c80" data-fill-palette-color="primary"></path><path d="M9.132 140.223c0-1.794 1.454-3.248 3.249-3.248 1.794 0 3.248 1.454 3.248 3.248 0 1.794-1.454 3.248-3.248 3.249-1.794 0-3.248-1.454-3.249-3.249z" fill="#010c80" data-fill-palette-color="primary"></path><path d="M264.259 140.223c0-1.794 1.454-3.248 3.248-3.248 1.794 0 3.248 1.454 3.249 3.248 0 1.794-1.454 3.248-3.249 3.249-1.794 0-3.248-1.454-3.248-3.249z" fill="#010c80" data-fill-palette-color="primary"></path></g><g id="text-1"><path d="M12.124 191.823v0c-0.945-2.525-1.194-4.982-0.746-7.371 0.447-2.389 1.492-4.523 3.134-6.399 1.646-1.886 3.807-3.33 6.483-4.332v0c2.683-1.004 5.262-1.342 7.736-1.013 2.466 0.325 4.65 1.235 6.552 2.731 1.902 1.496 3.32 3.493 4.256 5.992v0c0.597 1.594 0.885 3.232 0.865 4.914-0.02 1.681-0.326 3.292-0.917 4.834-0.589 1.548-1.433 2.888-2.531 4.02v0l-2.443-2.245c0.873-0.904 1.538-1.943 1.994-3.116 0.447-1.177 0.688-2.393 0.723-3.647 0.036-1.254-0.169-2.476-0.615-3.666v0c-0.689-1.841-1.77-3.323-3.243-4.445-1.467-1.124-3.164-1.795-5.092-2.011-1.928-0.216-3.954 0.074-6.081 0.87v0c-2.12 0.793-3.846 1.916-5.178 3.367-1.332 1.451-2.18 3.089-2.543 4.912-0.37 1.826-0.205 3.673 0.493 5.539v0c0.455 1.215 1.133 2.274 2.034 3.178 0.901 0.904 1.942 1.632 3.123 2.185 1.185 0.545 2.429 0.862 3.732 0.951v0l-0.353 3.336c-1.638-0.137-3.214-0.579-4.727-1.326-1.517-0.738-2.856-1.733-4.018-2.986-1.162-1.253-2.041-2.677-2.638-4.272z" fill="#010c80" data-fill-palette-color="primary"></path><path d="M71.086 247.066l-1.3-0.662c1.201-1.822 2.523-3.075 3.968-3.757 1.45-0.679 2.905-0.934 4.364-0.766 1.459 0.168 2.797 0.654 4.016 1.456v0l-1.673 2.539c-0.993-0.654-2.054-1.119-3.183-1.394-1.13-0.275-2.233-0.233-3.311 0.125-1.074 0.352-2.034 1.172-2.881 2.458zM64.958 256.366l-2.699-1.779 11.139-16.908 2.7 1.779z" fill="#010c80" data-fill-palette-color="primary"></path><path d="M152.901 278.232l-3.04 0.042-0.255-3.726-0.23-16.517 3.243-0.045zM138.547 268.55l-3.233 0.046-0.144-10.367 3.232-0.045zM135.314 268.596l3.233-0.046c0.028 2 0.279 3.523 0.753 4.571 0.474 1.041 1.126 1.751 1.955 2.132 0.83 0.38 1.758 0.563 2.785 0.549v0c1.756-0.024 3.115-0.679 4.077-1.963 0.969-1.277 1.437-3.05 1.405-5.32v0l1.581-0.022c0.03 2.135-0.255 3.973-0.855 5.515-0.6 1.549-1.482 2.737-2.647 3.564-1.157 0.827-2.587 1.252-4.289 1.276v0c-1.567 0.022-2.95-0.276-4.148-0.895-1.191-0.619-2.121-1.619-2.788-3.001-0.668-1.376-1.017-3.172-1.048-5.388v0z" fill="#010c80" data-fill-palette-color="primary"></path><path d="M224.633 249.904v0c-1.187 0.894-2.357 1.497-3.51 1.807-1.148 0.307-2.238 0.392-3.271 0.257-1.033-0.136-1.939-0.451-2.718-0.947v0l1.565-2.638c0.91 0.456 1.903 0.634 2.978 0.535 1.075-0.1 2.055-0.483 2.941-1.15v0c1.014-0.764 1.717-1.606 2.106-2.526 0.39-0.92 0.31-1.744-0.238-2.472v0c-0.504-0.669-1.164-1.018-1.981-1.046-0.816-0.028-1.818 0.203-3.006 0.692v0l-1.871 0.75c-1.76 0.717-3.345 0.989-4.753 0.815-1.414-0.17-2.493-0.748-3.237-1.736v0c-1.155-1.532-1.551-3.103-1.19-4.712 0.356-1.605 1.527-3.155 3.512-4.651v0c0.95-0.716 1.919-1.226 2.907-1.53 0.983-0.301 1.946-0.409 2.89-0.325 0.943 0.084 1.805 0.374 2.584 0.87v0l-1.51 2.711c-0.828-0.526-1.688-0.708-2.579-0.543-0.891 0.164-1.801 0.596-2.73 1.295v0c-0.993 0.748-1.611 1.544-1.855 2.387-0.244 0.844-0.081 1.643 0.488 2.399v0c0.321 0.426 0.856 0.653 1.605 0.681 0.749 0.028 1.666-0.181 2.751-0.626v0l1.935-0.799c1.253-0.538 2.424-0.819 3.513-0.844 1.094-0.029 2.069 0.141 2.924 0.512 0.855 0.371 1.559 0.923 2.111 1.657v0c0.728 0.966 1.101 2 1.12 3.103 0.019 1.103-0.269 2.174-0.864 3.214-0.6 1.044-1.472 1.998-2.617 2.86z" fill="#010c80" data-fill-palette-color="primary"></path><path d="M271.951 181.407v0c-0.629 1.87-1.602 3.153-2.92 3.851-1.316 0.691-2.854 0.74-4.615 0.148v0l-20.076-6.75 1.031-3.065 19.768 6.647c0.967 0.325 1.801 0.313 2.503-0.035 0.702-0.349 1.212-0.997 1.53-1.944v0c0.103-0.307 0.16-0.623 0.169-0.948 0.009-0.325-0.083-0.791-0.278-1.398v0l2.898-0.352c0.212 0.812 0.31 1.516 0.296 2.11-0.014 0.594-0.116 1.173-0.306 1.736zM256.021 172.758l-4.092 12.17-2.728-0.917 4.092-12.171z" fill="#010c80" data-fill-palette-color="primary"></path></g></svg></g></svg></g></svg></g></svg></g><defs></defs></svg><rect width="279.72" height="279.72" fill="none" stroke="none" visibility="hidden"></rect></g></svg></g></svg>